<?xml version="1.0" encoding="UTF-8" standalone="no"?><!DOCTYPE svg PUBLIC "-//W3C//DTD SVG 1.1//EN" "http://www.w3.org/Graphics/SVG/1.1/DTD/svg11.dtd"><svg width="100%" height="100%" viewBox="0 0 1000 1000" version="1.1" xmlns="http://www.w3.org/2000/svg" xmlns:xlink="http://www.w3.org/1999/xlink" xml:space="preserve" xmlns:serif="http://www.serif.com/" style="fill-rule:evenodd;clip-rule:evenodd;stroke-linecap:round;stroke-linejoin:round;stroke-miterlimit:1.5;"><g id="file"><path d="M250,172l350,0l0,148l140,0l0,460l-490,0l0,-608Z" style="fill:#0c0f10;stroke:#5fb6cb;stroke-width:33.33px;"/><path d="M324,284l140,0" style="fill:none;stroke:#5fb6cb;stroke-width:27.08px;"/><path d="M324,356l210,0" style="fill:none;stroke:#5fb6cb;stroke-width:27.08px;"/><path d="M324,705l285,0" style="fill:none;stroke:#5fb6cb;stroke-width:27.08px;"/><path d="M600,172l140,148l-140,0l0,-148Z" style="fill:#0c0f10;stroke:#5fb6cb;stroke-width:33.33px;"/></g><g id="sunglasses"><rect x="434" y="465.082" width="116.254" height="34.918" style="fill:#5fb6cb;"/><rect x="148.936" y="450" width="43.064" height="39" style="stroke:#5fb6cb;stroke-width:30.66px;"/><path d="M305,646c0,0 138.888,3.504 139.011,-143.545c0.003,-4.089 -0.541,-8.16 -1.619,-12.105c-16.24,-58.501 -139.461,-54.955 -172.346,-52.94c-11.855,0.838 -23.513,3.476 -34.574,7.823c-23.047,9.11 -52.377,28.816 -49.709,69.879c0.118,1.806 0.199,3.614 0.242,5.423c2.871,113.339 78.04,124.741 118.995,125.465Z" style="fill:#2e6876;stroke:#5fb6cb;stroke-width:36.54px;"/><path d="M444.011,516.459c33.65,-35.229 67.275,-34.143 100.925,-0" style="fill:none;stroke:#5fb6cb;stroke-width:30.66px;"/><path d="M389.083,447.265c0,0 82.805,19.222 105.39,17.735" style="fill:none;stroke:#5fb6cb;stroke-width:30.66px;"/><path d="M597.631,447.265c-0,0 -82.805,19.222 -105.39,17.735" style="fill:none;stroke:#5fb6cb;stroke-width:30.66px;"/><path d="M186.391,529.459c0,-0 -9.92,-27.007 -37.391,-42.459c0.047,-17.037 -0.073,-19.575 -0.064,-27.136c0.002,-5.599 4.241,-10.289 9.811,-10.857c29.662,-3.021 116.821,-11.9 116.821,-11.9" style="fill:none;stroke:#5fb6cb;stroke-width:36.54px;"/><rect x="796.947" y="450" width="43.064" height="39" style="stroke:#5fb6cb;stroke-width:30.66px;"/><path d="M683.947,646c-0,0 -138.888,3.504 -139.011,-143.545c-0.003,-4.089 0.541,-8.16 1.619,-12.105c16.24,-58.501 139.46,-54.955 172.346,-52.94c11.855,0.838 23.513,3.476 34.574,7.823c23.047,9.11 52.377,28.816 49.709,69.879c-0.118,1.806 -0.199,3.614 -0.243,5.423c-2.87,113.339 -78.04,124.741 -118.994,125.465Z" style="fill:#2e6876;stroke:#5fb6cb;stroke-width:36.54px;"/><path d="M802.555,529.459c0,-0 9.921,-27.007 37.392,-42.459c-0.048,-17.037 0.073,-19.575 0.063,-27.136c-0.002,-5.599 -4.24,-10.289 -9.81,-10.857c-29.663,-3.021 -116.821,-11.9 -116.821,-11.9" style="fill:none;stroke:#5fb6cb;stroke-width:36.54px;"/><rect x="796.947" y="455" width="39.639" height="34" style="fill:#5fb6cb;"/><rect x="162" y="455" width="22" height="27.541" style="fill:#5fb6cb;"/></g></svg>